<svg width="192" height="220" viewBox="0 0 192 220" fill="none" xmlns="http://www.w3.org/2000/svg">
<g id="host-record-svgrepo-com 1">
<path id="Vector" d="M128.775 50.6816C128.775 52.317 129.308 53.8853 130.258 55.0417C131.207 56.198 132.495 56.8477 133.837 56.8477C135.18 56.8477 136.468 56.198 137.417 55.0417C138.367 53.8853 138.9 52.317 138.9 50.6816C138.9 49.0463 138.367 47.478 137.417 46.3216C136.468 45.1653 135.18 44.5156 133.837 44.5156C132.495 44.5156 131.207 45.1653 130.258 46.3216C129.308 47.478 128.775 49.0463 128.775 50.6816Z" fill="#4456D5"/>
<path id="Vector_2" d="M128.775 99.1074C128.775 100.743 129.308 102.311 130.258 103.467C131.207 104.624 132.495 105.273 133.837 105.273C135.18 105.273 136.468 104.624 137.417 103.467C138.367 102.311 138.9 100.743 138.9 99.1074C138.9 97.4721 138.367 95.9037 137.417 94.7474C136.468 93.591 135.18 92.9414 133.837 92.9414C132.495 92.9414 131.207 93.591 130.258 94.7474C129.308 95.9037 128.775 97.4721 128.775 99.1074Z" fill="#4456D5"/>
<path id="Vector_3" d="M145.181 38.7363H33.7876C30.6938 38.7363 28.1626 41.6367 28.1626 45.1816V56.2031C28.1626 59.748 30.6938 62.6484 33.7876 62.6484H145.181C148.275 62.6484 150.806 59.748 150.806 56.2031V45.1816C150.806 41.6152 148.275 38.7363 145.181 38.7363ZM83.7188 52.8301H38.8313C37.8001 52.8301 36.9563 51.8633 36.9563 50.6816C36.9563 49.5 37.8001 48.5332 38.8313 48.5332H83.7188C84.7501 48.5332 85.5938 49.5 85.5938 50.6816C85.5938 51.8633 84.7501 52.8301 83.7188 52.8301ZM133.838 56.8691C131.044 56.8691 128.775 54.0977 128.775 50.7031C128.775 47.3086 131.044 44.5371 133.838 44.5371C136.631 44.5371 138.9 47.3086 138.9 50.7031C138.9 54.0977 136.631 56.8691 133.838 56.8691ZM150.806 93.5859C150.806 90.041 148.275 87.1406 145.181 87.1406H33.7876C30.6938 87.1406 28.1626 90.041 28.1626 93.5859V104.629C28.1626 108.174 30.6938 111.074 33.7876 111.074H107.794L113.925 106.777C115.031 106.004 116.306 105.574 117.619 105.553H117.75C118.95 105.553 120.169 105.896 121.238 106.52C122.381 107.186 123.356 108.174 124.069 109.377L125.081 111.074H134.231L135.038 109.27C135.488 108.26 136.106 107.379 136.894 106.67C137.625 105.982 138.469 105.488 139.388 105.187C140.063 104.951 140.775 104.844 141.469 104.844C142.669 104.844 143.869 105.188 144.938 105.811L149.625 108.561C150.356 107.465 150.788 106.111 150.788 104.629V93.5859H150.806ZM133.838 105.273C131.044 105.273 128.775 102.502 128.775 99.1074C128.775 95.7129 131.044 92.9414 133.838 92.9414C136.631 92.9414 138.9 95.7129 138.9 99.1074C138.9 102.502 136.631 105.273 133.838 105.273Z" fill="white"/>
<path id="Vector_4" d="M145.181 30.1426H33.7876C26.5501 30.1426 20.6626 36.8887 20.6626 45.1816V56.2031C20.6626 64.4961 26.5501 71.2422 33.7876 71.2422H145.181C152.419 71.2422 158.306 64.4961 158.306 56.2031V45.1816C158.306 36.8887 152.419 30.1426 145.181 30.1426ZM150.806 56.2031C150.806 59.748 148.275 62.6484 145.181 62.6484H33.7876C30.6938 62.6484 28.1626 59.748 28.1626 56.2031V45.1816C28.1626 41.6367 30.6938 38.7363 33.7876 38.7363H145.181C148.275 38.7363 150.806 41.6367 150.806 45.1816V56.2031Z" fill="#4456D5"/>
<path id="Vector_5" d="M83.7188 48.5332H38.8313C37.8 48.5332 36.9563 49.5 36.9563 50.6816C36.9563 51.8633 37.8 52.8301 38.8313 52.8301H83.7188C84.75 52.8301 85.5938 51.8633 85.5938 50.6816C85.5938 49.5 84.75 48.5332 83.7188 48.5332Z" fill="#4456D5"/>
<path id="Vector_6" d="M94.5938 157.072C93.8438 155.826 93.3938 154.408 93.3001 152.904L92.6438 142.742C92.4939 140.508 93.1313 138.381 94.4251 136.748C94.7813 136.297 95.1563 135.91 95.5688 135.566H33.7876C30.6938 135.566 28.1626 138.467 28.1626 142.012V153.033C28.1626 156.578 30.6938 159.479 33.7876 159.479H96.8063C95.9251 158.855 95.1751 158.039 94.5938 157.072Z" fill="#E6E6E6"/>
<path id="Vector_7" d="M106.838 163.775C106.256 162.787 105.731 161.756 105.244 160.703L101.044 160.832H100.856C99.6563 160.832 98.4563 160.51 97.3876 159.865C97.1813 159.758 96.9938 159.629 96.8063 159.479H33.7876C30.6938 159.479 28.1626 156.578 28.1626 153.033V142.012C28.1626 138.467 30.6938 135.566 33.7876 135.566H95.5688C95.9251 135.266 96.3188 135.008 96.7313 134.793C97.6313 134.32 98.6063 134.062 99.6188 134.041L103.613 133.912C103.688 133.676 103.763 133.461 103.838 133.225C104.156 132.322 104.494 131.42 104.888 130.582C105.356 129.529 105.9 128.477 106.5 127.445L106.219 126.951H33.7876C26.5501 126.951 20.6626 133.697 20.6626 141.99V153.012C20.6626 161.305 26.5501 168.051 33.7876 168.051H108.731L109.106 167.213C108.281 166.139 107.531 164.979 106.838 163.775Z" fill="#4456D5"/>
<path id="Vector_8" d="M144.356 142.141C143.756 140.207 142.856 138.445 141.656 136.898C141.281 136.426 140.906 135.996 140.494 135.566C139.594 134.664 138.6 133.869 137.513 133.225C135.938 132.301 134.25 131.721 132.506 131.506C130.706 131.291 128.925 131.463 127.2 132.043C126.319 132.344 125.494 132.73 124.706 133.225C123.975 133.676 123.263 134.213 122.625 134.836C122.381 135.072 122.156 135.309 121.931 135.566C120.975 136.641 120.188 137.865 119.569 139.219C118.819 140.916 118.369 142.721 118.256 144.633C118.125 146.609 118.369 148.586 118.95 150.519C119.55 152.453 120.45 154.215 121.65 155.762C122.813 157.266 124.219 158.49 125.794 159.414C125.831 159.436 125.869 159.457 125.925 159.478C127.481 160.359 129.113 160.918 130.819 161.133C132.619 161.348 134.4 161.176 136.125 160.596C136.969 160.316 137.756 159.951 138.506 159.5C139.294 159.027 140.025 158.469 140.7 157.824C141.975 156.6 143.006 155.139 143.756 153.441C144.506 151.744 144.956 149.939 145.069 148.027C145.181 146.051 144.956 144.074 144.356 142.141Z" fill="white"/>
<path id="Vector_9" d="M164.344 140.594C164.325 140.164 164.044 139.756 163.669 139.52C163.481 139.412 163.275 139.348 163.069 139.348L158.119 139.498L154.669 139.605L154.538 139.24L153.825 137.371C153.525 136.555 153.188 135.781 152.813 135.008C151.725 132.773 150.375 130.711 148.781 128.863L147.319 127.166L147.169 126.994L150.938 118.594C151.013 118.443 151.031 118.271 151.013 118.1C150.975 117.713 150.713 117.305 150.338 117.068L142.088 112.213C141.9 112.105 141.694 112.041 141.488 112.041C141.113 112.041 140.794 112.234 140.663 112.535L137.475 119.646L136.875 120.957L134.625 120.549C133.331 120.312 132.019 120.205 130.725 120.205C129.019 120.205 127.294 120.42 125.644 120.828L123.563 121.344L122.569 119.668L118.856 113.438C118.725 113.223 118.556 113.051 118.369 112.943C118.181 112.836 117.956 112.771 117.75 112.771C117.544 112.771 117.356 112.836 117.206 112.943L109.613 118.271C109.425 118.4 109.313 118.572 109.275 118.809C109.219 119.088 109.275 119.367 109.444 119.646L109.481 119.689L113.831 126.994L114.263 127.725L112.819 129.809C112.05 130.926 111.375 132.086 110.794 133.268C110.681 133.482 110.588 133.697 110.494 133.912C110.25 134.449 110.025 135.029 109.819 135.609C109.481 136.533 109.2 137.479 108.956 138.467L108.338 141.023L99.8063 141.281C99.5251 141.281 99.2813 141.41 99.1125 141.604C98.9813 141.775 98.925 141.99 98.925 142.227L99.5813 152.389C99.6 152.818 99.8813 153.227 100.256 153.463C100.444 153.57 100.65 153.635 100.856 153.635L109.238 153.377L110.081 155.611C110.588 156.965 111.206 158.254 111.9 159.5C112.763 161.025 113.756 162.465 114.863 163.797C114.956 163.904 115.05 164.012 115.125 164.119L116.738 165.967L115.781 168.094L112.969 174.389C112.838 174.689 112.894 174.99 112.95 175.162C113.063 175.484 113.269 175.742 113.569 175.914L121.819 180.77C122.006 180.877 122.213 180.941 122.419 180.941C122.794 180.941 123.113 180.748 123.244 180.447L127.013 172.025L129.263 172.434C130.556 172.67 131.869 172.777 133.163 172.777C134.869 172.777 136.594 172.562 138.244 172.154L140.325 171.639L145.031 179.545C145.163 179.76 145.331 179.932 145.519 180.039C145.706 180.146 145.931 180.211 146.138 180.211C146.344 180.211 146.531 180.146 146.681 180.039L154.275 174.711C154.463 174.582 154.575 174.41 154.613 174.174C154.669 173.83 154.556 173.529 154.444 173.336L150.525 166.74L149.644 165.236L150.994 163.303L151.088 163.174C152.006 161.863 152.775 160.488 153.413 159.07C153.844 158.125 154.219 157.094 154.538 156.041C154.688 155.547 154.838 155.031 154.95 154.516L155.588 151.959L158.288 151.873L164.119 151.701C164.4 151.701 164.644 151.572 164.813 151.379C164.944 151.207 165 150.992 165 150.756L164.344 140.594ZM123.994 163.432C122.231 162.4 120.656 161.068 119.306 159.479C119.1 159.242 118.913 159.006 118.706 158.748C117.15 156.75 115.988 154.473 115.219 151.98C114.45 149.467 114.15 146.889 114.3 144.289C114.45 141.775 115.031 139.369 116.044 137.135C116.288 136.576 116.55 136.061 116.85 135.545C117.319 134.729 117.844 133.934 118.406 133.203C118.931 132.537 119.494 131.914 120.094 131.355C121.838 129.701 123.844 128.477 126.075 127.725C127.294 127.316 128.531 127.059 129.788 126.951C130.613 126.887 131.438 126.887 132.281 126.951L132.9 127.016C135.131 127.295 137.288 128.025 139.294 129.207C141.075 130.26 142.669 131.592 144.038 133.225C144.225 133.439 144.394 133.654 144.581 133.891C145.013 134.449 145.406 135.008 145.781 135.609C146.756 137.156 147.525 138.854 148.069 140.658C148.838 143.172 149.138 145.75 148.988 148.35C148.838 150.863 148.256 153.27 147.244 155.504C146.588 156.965 145.781 158.297 144.825 159.5C144.319 160.145 143.775 160.725 143.194 161.283C142.144 162.271 141 163.109 139.781 163.797C138.956 164.248 138.113 164.635 137.213 164.936C135 165.688 132.694 165.924 130.388 165.645C128.381 165.408 126.45 164.785 124.631 163.797C124.425 163.668 124.219 163.561 123.994 163.432Z" fill="white"/>
<path id="Vector_10" d="M171.281 150.219L170.625 140.057C170.531 138.574 170.081 137.135 169.331 135.889C168.619 134.707 167.644 133.74 166.538 133.096C165.469 132.473 164.269 132.129 163.069 132.129H162.881L158.681 132.258C157.613 129.937 156.319 127.746 154.819 125.727L156.544 121.881C156.994 120.871 157.256 119.775 157.313 118.637C157.369 117.563 157.219 116.488 156.9 115.457C156.656 114.684 156.319 113.953 155.906 113.287C157.425 110.838 158.306 107.852 158.306 104.629V93.6074C158.306 85.3145 152.419 78.5684 145.181 78.5684H33.7876C26.5501 78.5684 20.6626 85.3145 20.6626 93.6074V104.629C20.6626 112.922 26.5501 119.668 33.7876 119.668H102.994C103.013 119.969 103.05 120.248 103.106 120.549C103.294 121.666 103.688 122.719 104.25 123.664L106.219 126.973L106.5 127.467C105.9 128.498 105.356 129.529 104.888 130.604C104.513 131.441 104.156 132.344 103.838 133.246C103.763 133.482 103.688 133.697 103.613 133.934L99.6188 134.062C98.6063 134.084 97.6313 134.342 96.7313 134.814C96.3188 135.029 95.9251 135.287 95.5688 135.588C95.1563 135.932 94.7626 136.318 94.4251 136.77C93.1313 138.424 92.4938 140.551 92.6438 142.764L93.3001 152.926C93.3938 154.408 93.8438 155.848 94.5938 157.094C95.1751 158.061 95.9438 158.877 96.8063 159.521C96.9938 159.65 97.1813 159.779 97.3876 159.908C98.4563 160.531 99.6563 160.875 100.856 160.875H101.044L105.244 160.746C105.731 161.799 106.256 162.83 106.838 163.818C107.531 165.021 108.281 166.16 109.106 167.277L108.731 168.115L107.381 171.123C106.931 172.133 106.669 173.229 106.613 174.367C106.556 175.441 106.706 176.516 107.025 177.547C107.663 179.631 108.975 181.328 110.719 182.359L118.969 187.215C120.056 187.838 121.256 188.182 122.438 188.182C123.15 188.182 123.844 188.074 124.519 187.838C125.438 187.537 126.281 187.021 127.013 186.355C127.781 185.646 128.419 184.766 128.869 183.756L130.594 179.91C131.456 179.996 132.319 180.039 133.181 180.039C134.625 180.039 136.05 179.932 137.475 179.695L139.838 183.67C140.55 184.873 141.525 185.861 142.669 186.527C143.738 187.15 144.956 187.494 146.156 187.494H146.288C147.6 187.473 148.875 187.043 149.981 186.27L157.575 180.941C159.244 179.781 160.369 177.934 160.781 175.764C160.988 174.689 160.988 173.572 160.8 172.477C160.613 171.359 160.219 170.307 159.656 169.361L157.406 165.58C158.006 164.549 158.55 163.518 159.019 162.443C159.488 161.391 159.919 160.273 160.294 159.113L164.288 158.984C165.3 158.963 166.275 158.705 167.175 158.232C168.056 157.76 168.844 157.115 169.481 156.299C170.794 154.58 171.431 152.453 171.281 150.219ZM28.1626 104.629V93.6074C28.1626 90.0625 30.6938 87.1621 33.7876 87.1621H145.181C148.275 87.1621 150.806 90.0625 150.806 93.6074V104.629C150.806 106.111 150.375 107.465 149.644 108.561L144.956 105.811C143.869 105.188 142.669 104.844 141.488 104.844C140.775 104.844 140.081 104.951 139.406 105.188C138.488 105.488 137.644 106.004 136.913 106.67C136.144 107.379 135.506 108.26 135.056 109.27L134.25 111.074H125.1L124.088 109.377C123.375 108.174 122.4 107.186 121.256 106.52C120.169 105.896 118.969 105.553 117.769 105.553H117.638C116.325 105.574 115.05 106.004 113.944 106.777L107.813 111.074H33.7876C30.6938 111.074 28.1626 108.174 28.1626 104.629ZM164.831 151.4C164.663 151.615 164.438 151.723 164.138 151.723L158.306 151.895L155.606 151.98L154.969 154.537C154.838 155.053 154.706 155.568 154.556 156.063C154.238 157.115 153.863 158.146 153.431 159.092C152.813 160.488 152.025 161.863 151.106 163.195L151.013 163.324L149.663 165.258L150.544 166.762L154.463 173.357C154.575 173.551 154.688 173.852 154.631 174.195C154.594 174.41 154.463 174.604 154.294 174.732L146.7 180.039C146.55 180.146 146.363 180.211 146.156 180.211C145.95 180.211 145.744 180.146 145.538 180.039C145.331 179.932 145.163 179.76 145.05 179.545L140.344 171.639L138.263 172.154C136.594 172.562 134.888 172.777 133.181 172.777C131.888 172.777 130.575 172.648 129.281 172.434L127.031 172.025L123.263 180.447C123.131 180.748 122.813 180.941 122.438 180.941C122.231 180.941 122.025 180.877 121.838 180.77L113.588 175.914C113.288 175.742 113.081 175.463 112.969 175.162C112.913 175.012 112.856 174.689 112.988 174.389L115.8 168.094L116.756 165.967L115.144 164.119C115.05 164.012 114.956 163.904 114.881 163.797C113.756 162.465 112.763 161.025 111.919 159.5C111.225 158.254 110.606 156.965 110.1 155.611L109.256 153.377L100.875 153.635C100.669 153.635 100.463 153.57 100.275 153.463C99.8813 153.227 99.6188 152.818 99.6001 152.389L98.9438 142.227C98.9251 141.99 98.9813 141.775 99.1313 141.604C99.3001 141.389 99.5251 141.281 99.8251 141.281L108.356 141.023L108.975 138.467C109.219 137.479 109.5 136.512 109.838 135.609C110.044 135.029 110.269 134.471 110.513 133.912C110.606 133.697 110.719 133.482 110.813 133.268C111.375 132.086 112.069 130.926 112.838 129.809L114.281 127.725L113.85 126.994L109.5 119.689L109.463 119.646C109.294 119.367 109.238 119.088 109.294 118.809C109.331 118.594 109.463 118.4 109.631 118.271L117.225 112.943C117.375 112.836 117.563 112.771 117.769 112.771C117.975 112.771 118.181 112.836 118.388 112.943C118.594 113.051 118.763 113.223 118.875 113.438L122.588 119.668L123.581 121.344L125.663 120.828C127.331 120.42 129.038 120.205 130.744 120.205C132.038 120.205 133.35 120.334 134.644 120.549L136.894 120.957L137.475 119.646L140.663 112.535C140.794 112.234 141.113 112.041 141.488 112.041C141.694 112.041 141.9 112.105 142.088 112.213L150.338 117.068C150.713 117.283 150.975 117.691 151.013 118.1C151.031 118.271 151.013 118.443 150.938 118.594L147.169 127.016L147.319 127.188L148.781 128.885C150.394 130.754 151.744 132.795 152.813 135.029C153.188 135.803 153.525 136.576 153.825 137.393L154.538 139.262L154.669 139.627L158.119 139.52L163.069 139.369C163.275 139.369 163.481 139.434 163.669 139.541C164.063 139.777 164.325 140.186 164.344 140.615L165 150.777C165.019 151.014 164.963 151.229 164.831 151.4Z" fill="#4456D5"/>
<path id="Vector_11" d="M129.788 126.973H132.281C131.438 126.908 130.613 126.908 129.788 126.973Z" fill="#4456D5"/>
<path id="Vector_12" d="M148.069 140.658C147.525 138.854 146.738 137.156 145.781 135.609C145.406 135.008 145.013 134.449 144.581 133.891C144.413 133.676 144.225 133.439 144.038 133.225C142.669 131.613 141.075 130.26 139.294 129.207C137.288 128.025 135.131 127.295 132.9 127.016L132.281 126.951H129.788C128.531 127.059 127.294 127.295 126.075 127.725C123.844 128.477 121.838 129.701 120.094 131.355C119.494 131.936 118.931 132.559 118.406 133.203C117.825 133.934 117.319 134.707 116.85 135.545C116.569 136.061 116.288 136.598 116.044 137.135C115.05 139.369 114.469 141.775 114.3 144.289C114.131 146.889 114.45 149.467 115.219 151.98C115.988 154.473 117.15 156.75 118.706 158.748C118.894 159.006 119.1 159.242 119.306 159.479C120.675 161.068 122.25 162.4 123.994 163.432C124.2 163.561 124.406 163.668 124.631 163.775C126.469 164.742 128.4 165.365 130.388 165.623C132.694 165.902 135 165.666 137.213 164.914C138.113 164.613 138.956 164.227 139.781 163.775C141 163.109 142.144 162.271 143.194 161.262C143.775 160.703 144.319 160.102 144.825 159.479C145.781 158.275 146.588 156.943 147.244 155.482C148.238 153.248 148.819 150.842 148.988 148.328C149.156 145.75 148.838 143.172 148.069 140.658ZM145.069 148.027C144.956 149.918 144.506 151.744 143.756 153.441C143.006 155.139 141.975 156.6 140.7 157.824C140.025 158.469 139.294 159.027 138.506 159.5C137.756 159.951 136.969 160.316 136.125 160.596C134.4 161.176 132.619 161.369 130.819 161.133C129.113 160.918 127.481 160.359 125.925 159.479C125.888 159.457 125.85 159.436 125.794 159.414C124.219 158.49 122.813 157.244 121.65 155.762C120.45 154.215 119.531 152.453 118.95 150.52C118.369 148.586 118.125 146.609 118.256 144.633C118.369 142.742 118.819 140.916 119.569 139.219C120.188 137.844 120.975 136.619 121.931 135.566C122.156 135.309 122.381 135.072 122.625 134.836C123.263 134.213 123.975 133.676 124.706 133.225C125.494 132.752 126.319 132.344 127.2 132.043C128.925 131.463 130.706 131.27 132.506 131.506C134.25 131.721 135.938 132.301 137.513 133.225C138.6 133.869 139.594 134.643 140.494 135.566C140.906 135.975 141.3 136.426 141.656 136.898C142.856 138.445 143.775 140.207 144.356 142.141C144.956 144.074 145.181 146.051 145.069 148.027Z" fill="#4456D5"/>
</g>
</svg>
